<svg width="25" height="24" viewBox="0 0 25 24" fill="none" xmlns="http://www.w3.org/2000/svg">
<g clip-path="url(#clip0_285_30)">
<path fill-rule="evenodd" clip-rule="evenodd" d="M12.9602 22C18.4832 22 22.9602 17.523 22.9602 12C22.9602 6.477 18.4832 2 12.9602 2C7.43721 2 2.96021 6.477 2.96021 12C2.96021 17.523 7.43721 22 12.9602 22Z" fill="white"/>
<path fill-rule="evenodd" clip-rule="evenodd" d="M17.4307 20H18.7512C18.8342 19.901 18.9177 19.8 19.0022 19.6975C19.2988 19.3338 19.4606 18.8788 19.4602 18.4095C19.4602 17.397 18.7212 16.5245 17.7077 16.3845C14.1997 15.899 11.7477 15.8525 8.22021 16.368C7.19621 16.5175 6.46021 17.4035 6.46021 18.423C6.46021 18.8755 6.60771 19.323 6.88721 19.6855C6.96971 19.7925 7.05121 19.8975 7.13221 20.0005H8.4207C13.4602 23 17.4307 20 17.4307 20ZM12.9602 13.5C14.0211 13.5 15.0385 13.0786 15.7886 12.3284C16.5388 11.5783 16.9602 10.5609 16.9602 9.5C16.9602 8.43913 16.5388 7.42172 15.7886 6.67157C15.0385 5.92143 14.0211 5.5 12.9602 5.5C11.8993 5.5 10.8819 5.92143 10.1318 6.67157C9.38163 7.42172 8.96021 8.43913 8.96021 9.5C8.96021 10.5609 9.38163 11.5783 10.1318 12.3284C10.8819 13.0786 11.8993 13.5 12.9602 13.5Z" fill="#0060FD"/>
<path fill-rule="evenodd" clip-rule="evenodd" d="M12.9602 21C17.9307 21 21.9602 16.9705 21.9602 12C21.9602 7.0295 17.9307 3 12.9602 3C7.98971 3 3.96021 7.0295 3.96021 12C3.96021 16.9705 7.98971 21 12.9602 21ZM12.9602 22C18.4832 22 22.9602 17.523 22.9602 12C22.9602 6.477 18.4832 2 12.9602 2C7.43721 2 2.96021 6.477 2.96021 12C2.96021 17.523 7.43721 22 12.9602 22Z" fill="white"/>
<circle cx="21.4602" cy="3.5" r="3.5" fill="#F31E1E"/>
</g>
<defs>
<clipPath id="clip0_285_30">
<rect width="24" height="24" fill="white" transform="translate(0.960205)"/>
</clipPath>
</defs>
</svg>
